<svg id="Ebene_1" data-name="Ebene 1" xmlns="http://www.w3.org/2000/svg" viewBox="0 0 436.8 567.1"><path d="M138.7,331c4.5,3.3,7.8,8.4,7.8,13.4l1.7,17.4a25.1,25.1,0,0,0,18.5,21.8,192.9,192.9,0,0,0,100.8,0A26,26,0,0,0,286,361.8l1.6-17.4a17.8,17.8,0,0,1,7.9-13.4c27.4-20.8,44.2-54.4,44.2-100.3V224l-4.5-5c-8.9-11.2-35.8-29.2-118.7-29.2S106.7,207.8,97.8,219l-3.9,5v6.7c0,45.9,17.3,79.5,44.8,100.3Zm99.1-77.9c1.7-15.7,12.9-27.4,33.6-24.6s28,16.2,26.3,31.9-10.6,26.9-33.6,24.6S235.6,268.8,237.8,253.1Zm-26.9,42.6c2.3-5.6,10.7-5.6,12.9,0l12.9,30.2a9.6,9.6,0,0,1-9,13.5H206.4c-6.7,0-11.7-7.3-8.9-13.5Zm-47.6-67.2c20.2-2.8,31.4,8.9,33.6,24.6s-3.3,29.7-26.3,31.9-31.4-8.9-33.6-24.6,5.6-29.1,26.3-31.9Z"/><path d="M339.2,436.2c6.7,2.8,16.8,5.1,26.8,2.8,21.9-5.6,26.9-16.2,24.1-28-1.7-7.8-6.7-13.4-15.7-15.6a25.4,25.4,0,0,0-2.8-14.6c-5.6-11.2-16.8-16.8-30.8-9-6.1,3.4-11.2,10.7-14,16.8a27.5,27.5,0,0,1-17.3,15.2l-92.4,33-92.4-33.6a35.2,35.2,0,0,1-17.4-15.1c-3.3-6.2-7.8-13.5-14-16.8-14-7.3-25.2-1.7-30.8,9.5-2.2,5-3.9,10.1-2.8,14.6-8.4,2.2-14,7.8-15.7,15.6-2.8,11.8,1.7,23,24.1,28,10.1,2.3,20.2,0,26.9-2.8a28.1,28.1,0,0,1,21.3,0l51.5,18.5-61,21.9a29.5,29.5,0,0,1-21.9-.6c-6.7-2.8-16.2-5.6-23.5-3.9-15.7,3.3-20.7,15.1-17.9,26.9,1.1,5.6,3.3,10,7.3,13.4-5.1,7.3-5.6,15.1-1.7,21.8,5.6,11.2,16.2,16.3,36.4,6.2,9.5-4.5,15.7-13.4,19.6-20.2a29.5,29.5,0,0,1,16.2-13.4l95.8-34.2,95.7,34.8c6.8,2.2,12.4,7.2,16.3,13.4s10.1,15.7,19.6,20.2c20.1,10,30.8,4.4,36.4-6.2a20.9,20.9,0,0,0-1.7-21.8,26.1,26.1,0,0,0,7.3-13.5c2.8-11.7-2.3-23.5-17.9-26.9-7.3-1.6-16.3,1.2-23.6,4a32.1,32.1,0,0,1-21.8.5l-61-21.8,51.5-18.5a25.6,25.6,0,0,1,21.3-.6Z"/><path d="M404.7,141.7c-25.8-4.5-88.5-23-142.3-102.5-22.9-33.6-67.7-33.6-90.7,0C118,118.7,55.2,137.2,29.5,141.7c-6.2,1.1-10.7,8.4-8.4,15.7l9.5,39.2c1.1,5,5.6,8.9,10.1,8.9H81c22.4-28,74.5-37.5,136.1-37.5s113.7,9.5,136.1,37.5h40.3c5,0,8.9-3.3,10.1-8.9l10-39.2c1.7-7.3-2.8-15.2-8.9-15.7Z"/></svg>