<svg id="Ebene_1" data-name="Ebene 1" xmlns="http://www.w3.org/2000/svg" viewBox="0 0 530 530"><path d="M265,115.67A149.33,149.33,0,1,0,414.33,265,149.33,149.33,0,0,0,265,115.67ZM153,265A112.11,112.11,0,0,1,265,153V377A112.11,112.11,0,0,1,153,265Z"/><rect x="246.33" y="22.33" width="37.33" height="56"/><rect x="246.33" y="451.67" width="37.33" height="56"/><rect x="388.67" y="94.5" width="56" height="37.33" transform="translate(42.02 327.78) rotate(-45)"/><rect x="85.28" y="397.64" width="56" height="37.33" transform="translate(-261.2 202.03) rotate(-45)"/><rect x="397.81" y="389.23" width="37.33" height="56" transform="translate(-173.04 416.7) rotate(-45)"/><rect x="94.41" y="85.17" width="37.33" height="56" transform="translate(-46.9 113.1) rotate(-45)"/><rect x="451.67" y="246.33" width="56" height="37.33"/><rect x="22.33" y="246.33" width="56" height="37.33"/></svg>